<?xml version="1.0" encoding="utf-8"?>
<!-- Generator: Adobe Illustrator 27.0.0, SVG Export Plug-In . SVG Version: 6.00 Build 0)  -->
<svg version="1.1" id="Layer_1" xmlns="http://www.w3.org/2000/svg" xmlns:xlink="http://www.w3.org/1999/xlink" x="0px" y="0px"
	 viewBox="0 0 99.33 11.56" xml:space="preserve">
<g>
	<path d="M3.69,1.39V9H2.64V1.39H0V0.47h6.33v0.93H3.69z"/>
	<path d="M7.67,4.5C7.8,4.1,7.99,3.76,8.24,3.47c0.25-0.29,0.55-0.52,0.9-0.68s0.76-0.25,1.2-0.25c0.45,0,0.85,0.08,1.21,0.25
		s0.66,0.39,0.91,0.68c0.25,0.29,0.44,0.63,0.57,1.02s0.2,0.82,0.2,1.27V5.9c0,0.46-0.07,0.88-0.2,1.27s-0.32,0.73-0.57,1.02
		c-0.25,0.29-0.55,0.52-0.91,0.68s-0.76,0.25-1.2,0.25c-0.45,0-0.85-0.08-1.21-0.25S8.49,8.48,8.24,8.19
		C7.99,7.9,7.8,7.56,7.67,7.17s-0.2-0.81-0.2-1.27V5.77C7.47,5.31,7.54,4.89,7.67,4.5z M8.67,6.79c0.07,0.28,0.19,0.53,0.34,0.75
		c0.15,0.21,0.34,0.38,0.56,0.51s0.49,0.19,0.79,0.19c0.3,0,0.56-0.06,0.78-0.19s0.41-0.29,0.57-0.51c0.15-0.21,0.26-0.46,0.33-0.75
		s0.11-0.58,0.11-0.89V5.77c0-0.31-0.04-0.6-0.11-0.89s-0.19-0.53-0.34-0.75c-0.15-0.21-0.34-0.39-0.57-0.51s-0.49-0.19-0.79-0.19
		S9.79,3.5,9.56,3.62s-0.41,0.3-0.56,0.51C8.85,4.35,8.74,4.6,8.67,4.88S8.55,5.46,8.55,5.77V5.9C8.55,6.21,8.59,6.51,8.67,6.79z"/>
	<path d="M14.95,4.47c0.12-0.4,0.29-0.74,0.51-1.02c0.22-0.29,0.48-0.51,0.8-0.67s0.66-0.24,1.05-0.24c0.38,0,0.71,0.06,0.99,0.19
		s0.53,0.31,0.74,0.55V0h1.08v9h-1l-0.05-0.67c-0.21,0.26-0.46,0.45-0.76,0.59s-0.63,0.2-1.03,0.2c-0.38,0-0.73-0.08-1.04-0.25
		s-0.58-0.39-0.79-0.68s-0.39-0.63-0.51-1.02s-0.18-0.82-0.18-1.27V5.78C14.77,5.3,14.83,4.87,14.95,4.47z M15.96,6.78
		c0.07,0.28,0.17,0.52,0.31,0.73c0.14,0.21,0.31,0.38,0.53,0.5s0.47,0.18,0.77,0.18c0.36,0,0.66-0.08,0.9-0.25s0.43-0.38,0.57-0.66
		V4.35c-0.14-0.26-0.33-0.47-0.57-0.64s-0.54-0.25-0.89-0.25c-0.3,0-0.57,0.06-0.78,0.19s-0.39,0.29-0.53,0.5
		c-0.14,0.21-0.24,0.46-0.31,0.74s-0.1,0.57-0.1,0.88V5.9C15.86,6.21,15.89,6.5,15.96,6.78z"/>
	<path d="M26.24,8.69c-0.03-0.12-0.04-0.25-0.06-0.38c-0.11,0.11-0.23,0.21-0.37,0.31s-0.28,0.18-0.44,0.26
		c-0.16,0.07-0.34,0.13-0.52,0.18s-0.38,0.06-0.59,0.06c-0.34,0-0.64-0.05-0.91-0.15s-0.5-0.23-0.69-0.4
		c-0.19-0.16-0.34-0.36-0.44-0.59s-0.16-0.48-0.16-0.74c0-0.35,0.07-0.65,0.21-0.91s0.33-0.48,0.59-0.66
		c0.25-0.17,0.56-0.3,0.92-0.39s0.76-0.13,1.2-0.13h1.18v-0.5c0-0.19-0.04-0.36-0.11-0.52s-0.17-0.28-0.3-0.39
		c-0.13-0.11-0.29-0.19-0.47-0.25s-0.39-0.09-0.62-0.09c-0.21,0-0.41,0.03-0.58,0.08s-0.31,0.13-0.43,0.22s-0.21,0.2-0.27,0.32
		s-0.1,0.25-0.1,0.38H22.2c0-0.23,0.06-0.46,0.18-0.68s0.28-0.42,0.5-0.6c0.21-0.18,0.48-0.32,0.79-0.43s0.66-0.16,1.06-0.16
		c0.36,0,0.69,0.04,1,0.13s0.58,0.22,0.8,0.4c0.22,0.18,0.4,0.4,0.53,0.67s0.19,0.58,0.19,0.93v2.95c0,0.21,0.02,0.43,0.06,0.67
		s0.09,0.44,0.16,0.62V9h-1.13C26.3,8.92,26.27,8.82,26.24,8.69z M25.02,8.09c0.18-0.05,0.35-0.13,0.5-0.22
		c0.15-0.09,0.28-0.19,0.39-0.31s0.2-0.24,0.26-0.36V5.92h-1.01c-0.38,0-0.7,0.03-0.98,0.1s-0.5,0.16-0.67,0.3
		c-0.12,0.09-0.21,0.21-0.27,0.33s-0.09,0.28-0.09,0.44c0,0.16,0.03,0.3,0.08,0.43s0.13,0.25,0.24,0.34c0.11,0.1,0.24,0.17,0.4,0.23
		s0.35,0.08,0.56,0.08S24.84,8.15,25.02,8.09z"/>
	<path d="M29.53,11.53c-0.14-0.02-0.24-0.04-0.31-0.06l0.18-0.88c0.1,0.01,0.19,0.01,0.29,0.02s0.17,0.01,0.23,0.01
		c0.15,0,0.28-0.04,0.41-0.12s0.23-0.18,0.33-0.29c0.09-0.11,0.17-0.23,0.24-0.35s0.12-0.22,0.16-0.3l0.43-0.84l-2.73-6.04h1.21
		l1.74,4.09l0.28,0.77l0.3-0.74l1.63-4.11h1.21l-3.22,7.32c-0.07,0.16-0.17,0.34-0.28,0.52s-0.25,0.35-0.42,0.51
		s-0.36,0.29-0.57,0.39s-0.47,0.16-0.76,0.16C29.79,11.56,29.67,11.55,29.53,11.53z"/>
	<path d="M48.94,0.47v0.94h-2.04v6.65h2.04V9h-5.16V8.06h2V1.41h-2V0.47H48.94z"/>
	<path d="M62.47,6.18C62.35,6,62.2,5.85,62.01,5.72c-0.19-0.12-0.39-0.22-0.62-0.3s-0.44-0.16-0.65-0.22
		c-0.3-0.1-0.61-0.22-0.92-0.35s-0.59-0.31-0.85-0.5c-0.26-0.2-0.47-0.43-0.63-0.71s-0.24-0.59-0.24-0.96s0.08-0.7,0.24-0.98
		s0.37-0.53,0.64-0.73s0.56-0.35,0.89-0.45s0.67-0.16,1-0.16c0.37,0,0.73,0.06,1.07,0.18s0.65,0.3,0.91,0.52s0.48,0.49,0.64,0.81
		s0.24,0.67,0.25,1.06h-1.11c-0.03-0.25-0.09-0.47-0.18-0.67s-0.21-0.37-0.36-0.52s-0.33-0.26-0.53-0.34s-0.44-0.12-0.69-0.12
		c-0.21,0-0.41,0.03-0.61,0.09s-0.37,0.15-0.52,0.26c-0.16,0.12-0.28,0.26-0.37,0.43s-0.14,0.37-0.14,0.6
		c0,0.25,0.07,0.45,0.19,0.62s0.28,0.31,0.46,0.43c0.18,0.12,0.38,0.21,0.6,0.29s0.42,0.15,0.61,0.21c0.32,0.1,0.63,0.22,0.95,0.35
		s0.61,0.32,0.87,0.53c0.26,0.2,0.47,0.44,0.62,0.73s0.24,0.62,0.24,1c0,0.38-0.08,0.72-0.25,1s-0.39,0.52-0.66,0.71
		c-0.27,0.19-0.57,0.33-0.91,0.43s-0.68,0.14-1.02,0.14c-0.41,0-0.81-0.07-1.2-0.21S59,8.58,58.71,8.32
		c-0.26-0.22-0.46-0.48-0.61-0.78s-0.23-0.63-0.24-1h1.11c0.04,0.27,0.11,0.5,0.22,0.71s0.25,0.38,0.42,0.52
		c0.17,0.14,0.37,0.25,0.59,0.33s0.47,0.11,0.74,0.11c0.21,0,0.42-0.03,0.62-0.08s0.39-0.14,0.55-0.25
		c0.16-0.11,0.29-0.25,0.39-0.42s0.15-0.37,0.15-0.61C62.65,6.58,62.59,6.36,62.47,6.18z"/>
	<path d="M65.28,4.5c0.13-0.39,0.32-0.73,0.57-1.02c0.25-0.29,0.55-0.52,0.9-0.68s0.76-0.25,1.2-0.25c0.45,0,0.85,0.08,1.21,0.25
		s0.66,0.39,0.91,0.68c0.25,0.29,0.44,0.63,0.57,1.02s0.2,0.82,0.2,1.27V5.9c0,0.46-0.07,0.88-0.2,1.27s-0.32,0.73-0.57,1.02
		c-0.25,0.29-0.55,0.52-0.91,0.68s-0.76,0.25-1.2,0.25c-0.45,0-0.85-0.08-1.21-0.25s-0.66-0.39-0.91-0.68
		c-0.25-0.29-0.44-0.63-0.57-1.02s-0.2-0.81-0.2-1.27V5.77C65.08,5.31,65.15,4.89,65.28,4.5z M66.28,6.79
		c0.07,0.28,0.19,0.53,0.34,0.75c0.15,0.21,0.34,0.38,0.56,0.51s0.49,0.19,0.79,0.19c0.3,0,0.56-0.06,0.78-0.19s0.41-0.29,0.57-0.51
		c0.15-0.21,0.26-0.46,0.33-0.75s0.11-0.58,0.11-0.89V5.77c0-0.31-0.04-0.6-0.11-0.89s-0.19-0.53-0.34-0.75
		c-0.15-0.21-0.34-0.39-0.57-0.51s-0.49-0.19-0.79-0.19s-0.56,0.06-0.79,0.19s-0.41,0.3-0.56,0.51c-0.15,0.21-0.27,0.46-0.34,0.75
		s-0.11,0.58-0.11,0.89V5.9C66.16,6.21,66.2,6.51,66.28,6.79z"/>
	<path d="M76,0v8.06h2.07V9h-5.31V8.06h2.16V0.94h-2.16V0H76z"/>
	<path d="M79.34,2.66h1.11l1.82,4.78l0.1,0.39l0.11-0.39l1.78-4.78h1.11L82.78,9h-0.83L79.34,2.66z"/>
	<path d="M88.56,8.89c-0.37-0.15-0.69-0.37-0.96-0.64s-0.47-0.6-0.62-0.97s-0.22-0.78-0.22-1.22V5.81c0-0.51,0.08-0.97,0.25-1.37
		s0.38-0.75,0.66-1.03c0.27-0.28,0.58-0.49,0.92-0.64s0.7-0.22,1.06-0.22c0.46,0,0.86,0.08,1.2,0.24s0.63,0.38,0.85,0.65
		c0.23,0.28,0.4,0.61,0.51,0.99s0.17,0.79,0.17,1.23v0.49h-4.53v0.04c0.03,0.31,0.09,0.58,0.18,0.81s0.23,0.44,0.4,0.62
		c0.17,0.19,0.38,0.34,0.62,0.45s0.51,0.16,0.8,0.16c0.39,0,0.73-0.08,1.03-0.23s0.55-0.36,0.75-0.62l0.66,0.52
		c-0.21,0.32-0.53,0.6-0.95,0.85s-0.94,0.37-1.56,0.37C89.34,9.12,88.93,9.04,88.56,8.89z M89.03,3.55c-0.2,0.08-0.37,0.2-0.53,0.35
		c-0.16,0.16-0.29,0.35-0.4,0.57s-0.18,0.48-0.23,0.78h3.41V5.2c0-0.2-0.04-0.41-0.11-0.63S91,4.15,90.87,3.98s-0.3-0.3-0.5-0.4
		s-0.44-0.15-0.72-0.15C89.43,3.43,89.22,3.47,89.03,3.55z"/>
	<path d="M94.16,4.47c0.12-0.4,0.29-0.74,0.51-1.02c0.22-0.29,0.48-0.51,0.8-0.67s0.66-0.24,1.05-0.24c0.38,0,0.71,0.06,0.99,0.19
		s0.53,0.31,0.74,0.55V0h1.08v9h-1l-0.05-0.67c-0.21,0.26-0.46,0.45-0.76,0.59s-0.63,0.2-1.03,0.2c-0.38,0-0.73-0.08-1.04-0.25
		s-0.58-0.39-0.79-0.68s-0.39-0.63-0.51-1.02s-0.18-0.82-0.18-1.27V5.78C93.98,5.3,94.04,4.87,94.16,4.47z M95.17,6.78
		c0.07,0.28,0.17,0.52,0.31,0.73c0.14,0.21,0.31,0.38,0.53,0.5s0.47,0.18,0.77,0.18c0.36,0,0.66-0.08,0.9-0.25s0.43-0.38,0.57-0.66
		V4.35c-0.14-0.26-0.33-0.47-0.57-0.64s-0.54-0.25-0.89-0.25c-0.3,0-0.57,0.06-0.78,0.19s-0.39,0.29-0.53,0.5
		c-0.14,0.21-0.24,0.46-0.31,0.74s-0.1,0.57-0.1,0.88V5.9C95.07,6.21,95.1,6.5,95.17,6.78z"/>
</g>
</svg>
